<svg width="89" height="54" viewBox="0 0 89 54" fill="none" xmlns="http://www.w3.org/2000/svg">
<g filter="url(#filter0_d_0_1372)">
<path d="M11.022 15C10.868 15 10.77 14.93 10.728 14.79L8.607 8.994C8.579 8.938 8.544 8.91 8.502 8.91H7.179C7.109 8.91 7.074 8.945 7.074 9.015V14.748C7.074 14.818 7.046 14.881 6.99 14.937C6.948 14.979 6.892 15 6.822 15H4.365C4.295 15 4.232 14.979 4.176 14.937C4.134 14.881 4.113 14.818 4.113 14.748V0.552C4.113 0.482 4.134 0.425999 4.176 0.383999C4.232 0.327999 4.295 0.299999 4.365 0.299999H9.489C10.315 0.299999 11.05 0.488999 11.694 0.866999C12.338 1.231 12.835 1.749 13.185 2.421C13.535 3.093 13.71 3.863 13.71 4.731C13.71 5.627 13.514 6.404 13.122 7.062C12.73 7.72 12.177 8.21 11.463 8.532C11.393 8.56 11.372 8.609 11.4 8.679L13.794 14.706C13.808 14.734 13.815 14.769 13.815 14.811C13.815 14.937 13.738 15 13.584 15H11.022ZM7.179 2.841C7.109 2.841 7.074 2.876 7.074 2.946V6.537C7.074 6.607 7.109 6.642 7.179 6.642H9.006C9.524 6.642 9.944 6.474 10.266 6.138C10.588 5.788 10.749 5.326 10.749 4.752C10.749 4.164 10.588 3.702 10.266 3.366C9.944 3.016 9.524 2.841 9.006 2.841H7.179ZM20.1353 15.189C19.1693 15.189 18.3153 14.993 17.5733 14.601C16.8453 14.209 16.2783 13.656 15.8723 12.942C15.4663 12.228 15.2633 11.395 15.2633 10.443V4.857C15.2633 3.919 15.4663 3.093 15.8723 2.379C16.2783 1.665 16.8453 1.112 17.5733 0.72C18.3153 0.328 19.1693 0.132 20.1353 0.132C21.1013 0.132 21.9553 0.328 22.6973 0.72C23.4393 1.112 24.0133 1.665 24.4193 2.379C24.8253 3.093 25.0283 3.919 25.0283 4.857V10.443C25.0283 11.395 24.8253 12.228 24.4193 12.942C24.0133 13.656 23.4393 14.209 22.6973 14.601C21.9553 14.993 21.1013 15.189 20.1353 15.189ZM20.1353 12.648C20.7233 12.648 21.1923 12.459 21.5423 12.081C21.8923 11.689 22.0673 11.185 22.0673 10.569V4.773C22.0673 4.143 21.8923 3.639 21.5423 3.261C21.1923 2.869 20.7233 2.673 20.1353 2.673C19.5613 2.673 19.0993 2.869 18.7493 3.261C18.3993 3.639 18.2243 4.143 18.2243 4.773V10.569C18.2243 11.185 18.3993 11.689 18.7493 12.081C19.0993 12.459 19.5613 12.648 20.1353 12.648ZM31.5567 15.168C30.6047 15.168 29.7647 14.979 29.0367 14.601C28.3087 14.223 27.7417 13.684 27.3357 12.984C26.9437 12.284 26.7477 11.472 26.7477 10.548V4.71C26.7477 3.8 26.9437 3.002 27.3357 2.316C27.7417 1.616 28.3087 1.077 29.0367 0.698999C29.7647 0.321 30.6047 0.132 31.5567 0.132C32.5087 0.132 33.3487 0.321 34.0767 0.698999C34.8047 1.063 35.3647 1.581 35.7567 2.253C36.1627 2.925 36.3657 3.709 36.3657 4.605V4.71C36.3657 4.78 36.3377 4.843 36.2817 4.899C36.2397 4.955 36.1837 4.983 36.1137 4.983L33.6567 5.088C33.4887 5.088 33.4047 5.011 33.4047 4.857V4.584C33.4047 4.01 33.2367 3.548 32.9007 3.198C32.5647 2.848 32.1167 2.673 31.5567 2.673C30.9967 2.673 30.5487 2.848 30.2127 3.198C29.8767 3.548 29.7087 4.01 29.7087 4.584V10.737C29.7087 11.311 29.8767 11.773 30.2127 12.123C30.5487 12.459 30.9967 12.627 31.5567 12.627C32.1167 12.627 32.5647 12.459 32.9007 12.123C33.2367 11.773 33.4047 11.311 33.4047 10.737V10.464C33.4047 10.31 33.4887 10.233 33.6567 10.233L36.1137 10.338C36.1837 10.338 36.2397 10.366 36.2817 10.422C36.3377 10.464 36.3657 10.52 36.3657 10.59V10.653C36.3657 11.549 36.1627 12.34 35.7567 13.026C35.3647 13.712 34.8047 14.244 34.0767 14.622C33.3487 14.986 32.5087 15.168 31.5567 15.168ZM38.5105 15C38.4405 15 38.3775 14.979 38.3215 14.937C38.2795 14.881 38.2585 14.818 38.2585 14.748V0.552C38.2585 0.482 38.2795 0.425999 38.3215 0.383999C38.3775 0.327999 38.4405 0.299999 38.5105 0.299999H40.9675C41.0375 0.299999 41.0935 0.327999 41.1355 0.383999C41.1915 0.425999 41.2195 0.482 41.2195 0.552V6.138C41.2195 6.18 41.2335 6.208 41.2615 6.222C41.3035 6.236 41.3315 6.222 41.3455 6.18L45.1045 0.467999C45.1745 0.355999 45.2725 0.299999 45.3985 0.299999H48.1075C48.2055 0.299999 48.2685 0.327999 48.2965 0.383999C48.3385 0.439999 48.3315 0.509999 48.2755 0.593999L44.3905 6.621C44.3765 6.663 44.3765 6.712 44.3905 6.768L48.5065 14.706C48.5345 14.762 48.5485 14.804 48.5485 14.832C48.5485 14.944 48.4715 15 48.3175 15H45.6295C45.5035 15 45.4055 14.937 45.3355 14.811L42.3535 9.057C42.3395 9.015 42.3185 8.994 42.2905 8.994C42.2625 8.994 42.2345 9.015 42.2065 9.057L41.2615 10.422C41.2335 10.478 41.2195 10.52 41.2195 10.548V14.748C41.2195 14.818 41.1915 14.881 41.1355 14.937C41.0935 14.979 41.0375 15 40.9675 15H38.5105ZM9.384 16.279C10.224 16.279 10.966 16.468 11.61 16.846C12.268 17.224 12.772 17.756 13.122 18.442C13.486 19.128 13.668 19.912 13.668 20.794C13.668 21.662 13.486 22.432 13.122 23.104C12.772 23.762 12.268 24.273 11.61 24.637C10.966 25.001 10.224 25.183 9.384 25.183H7.116C7.046 25.183 7.011 25.218 7.011 25.288V30.748C7.011 30.818 6.983 30.881 6.927 30.937C6.885 30.979 6.829 31 6.759 31H4.302C4.232 31 4.169 30.979 4.113 30.937C4.071 30.881 4.05 30.818 4.05 30.748V16.531C4.05 16.461 4.071 16.405 4.113 16.363C4.169 16.307 4.232 16.279 4.302 16.279H9.384ZM8.901 22.831C9.447 22.831 9.881 22.656 10.203 22.306C10.539 21.942 10.707 21.459 10.707 20.857C10.707 20.241 10.539 19.751 10.203 19.387C9.881 19.023 9.447 18.841 8.901 18.841H7.116C7.046 18.841 7.011 18.876 7.011 18.946V22.726C7.011 22.796 7.046 22.831 7.116 22.831H8.901ZM22.0959 31C21.9419 31 21.8439 30.93 21.8019 30.79L21.3189 28.732C21.3049 28.676 21.2699 28.648 21.2139 28.648H17.2869C17.2309 28.648 17.1959 28.676 17.1819 28.732L16.6989 30.79C16.6569 30.93 16.5659 31 16.4259 31H13.8849C13.7029 31 13.6329 30.909 13.6749 30.727L17.4549 16.51C17.4969 16.37 17.5949 16.3 17.7489 16.3H20.7939C20.9479 16.3 21.0459 16.37 21.0879 16.51L24.8679 30.727L24.8889 30.811C24.8889 30.937 24.8119 31 24.6579 31H22.0959ZM17.7489 26.233C17.7349 26.275 17.7419 26.31 17.7699 26.338C17.7979 26.352 17.8259 26.359 17.8539 26.359H20.6259C20.6539 26.359 20.6819 26.352 20.7099 26.338C20.7379 26.31 20.7449 26.275 20.7309 26.233L19.2819 20.143C19.2679 20.087 19.2469 20.059 19.2189 20.059C19.1909 20.059 19.1699 20.087 19.1559 20.143L17.7489 26.233ZM31.717 16.279C32.557 16.279 33.299 16.468 33.943 16.846C34.601 17.224 35.105 17.756 35.455 18.442C35.819 19.128 36.001 19.912 36.001 20.794C36.001 21.662 35.819 22.432 35.455 23.104C35.105 23.762 34.601 24.273 33.943 24.637C33.299 25.001 32.557 25.183 31.717 25.183H29.449C29.379 25.183 29.344 25.218 29.344 25.288V30.748C29.344 30.818 29.316 30.881 29.26 30.937C29.218 30.979 29.162 31 29.092 31H26.635C26.565 31 26.502 30.979 26.446 30.937C26.404 30.881 26.383 30.818 26.383 30.748V16.531C26.383 16.461 26.404 16.405 26.446 16.363C26.502 16.307 26.565 16.279 26.635 16.279H31.717ZM31.234 22.831C31.78 22.831 32.214 22.656 32.536 22.306C32.872 21.942 33.04 21.459 33.04 20.857C33.04 20.241 32.872 19.751 32.536 19.387C32.214 19.023 31.78 18.841 31.234 18.841H29.449C29.379 18.841 29.344 18.876 29.344 18.946V22.726C29.344 22.796 29.379 22.831 29.449 22.831H31.234ZM46.5483 18.589C46.5483 18.659 46.5203 18.722 46.4643 18.778C46.4223 18.82 46.3663 18.841 46.2963 18.841H40.6683C40.5983 18.841 40.5633 18.876 40.5633 18.946V22.222C40.5633 22.292 40.5983 22.327 40.6683 22.327H44.1753C44.2453 22.327 44.3013 22.355 44.3433 22.411C44.3993 22.453 44.4273 22.509 44.4273 22.579V24.616C44.4273 24.686 44.3993 24.749 44.3433 24.805C44.3013 24.847 44.2453 24.868 44.1753 24.868H40.6683C40.5983 24.868 40.5633 24.903 40.5633 24.973V28.354C40.5633 28.424 40.5983 28.459 40.6683 28.459H46.2963C46.3663 28.459 46.4223 28.487 46.4643 28.543C46.5203 28.585 46.5483 28.641 46.5483 28.711V30.748C46.5483 30.818 46.5203 30.881 46.4643 30.937C46.4223 30.979 46.3663 31 46.2963 31H37.8543C37.7843 31 37.7213 30.979 37.6653 30.937C37.6233 30.881 37.6023 30.818 37.6023 30.748V16.552C37.6023 16.482 37.6233 16.426 37.6653 16.384C37.7213 16.328 37.7843 16.3 37.8543 16.3H46.2963C46.3663 16.3 46.4223 16.328 46.4643 16.384C46.5203 16.426 46.5483 16.482 46.5483 16.552V18.589ZM55.2368 31C55.0828 31 54.9848 30.93 54.9428 30.79L52.8218 24.994C52.7938 24.938 52.7588 24.91 52.7168 24.91H51.3938C51.3238 24.91 51.2888 24.945 51.2888 25.015V30.748C51.2888 30.818 51.2608 30.881 51.2048 30.937C51.1628 30.979 51.1068 31 51.0368 31H48.5798C48.5098 31 48.4468 30.979 48.3908 30.937C48.3488 30.881 48.3278 30.818 48.3278 30.748V16.552C48.3278 16.482 48.3488 16.426 48.3908 16.384C48.4468 16.328 48.5098 16.3 48.5798 16.3H53.7038C54.5298 16.3 55.2648 16.489 55.9088 16.867C56.5528 17.231 57.0498 17.749 57.3998 18.421C57.7498 19.093 57.9248 19.863 57.9248 20.731C57.9248 21.627 57.7288 22.404 57.3368 23.062C56.9448 23.72 56.3918 24.21 55.6778 24.532C55.6078 24.56 55.5868 24.609 55.6148 24.679L58.0088 30.706C58.0228 30.734 58.0298 30.769 58.0298 30.811C58.0298 30.937 57.9528 31 57.7988 31H55.2368ZM51.3938 18.841C51.3238 18.841 51.2888 18.876 51.2888 18.946V22.537C51.2888 22.607 51.3238 22.642 51.3938 22.642H53.2208C53.7388 22.642 54.1588 22.474 54.4808 22.138C54.8028 21.788 54.9638 21.326 54.9638 20.752C54.9638 20.164 54.8028 19.702 54.4808 19.366C54.1588 19.016 53.7388 18.841 53.2208 18.841H51.3938ZM8.523 47.168C7.557 47.168 6.71 47 5.982 46.664C5.254 46.314 4.687 45.831 4.281 45.215C3.889 44.585 3.693 43.864 3.693 43.052V42.506C3.693 42.436 3.714 42.38 3.756 42.338C3.812 42.282 3.875 42.254 3.945 42.254H6.36C6.43 42.254 6.486 42.282 6.528 42.338C6.584 42.38 6.612 42.436 6.612 42.506V42.905C6.612 43.395 6.794 43.808 7.158 44.144C7.522 44.466 8.012 44.627 8.628 44.627C9.174 44.627 9.587 44.487 9.867 44.207C10.161 43.927 10.308 43.57 10.308 43.136C10.308 42.814 10.217 42.541 10.035 42.317C9.853 42.079 9.594 41.862 9.258 41.666C8.936 41.456 8.432 41.176 7.746 40.826C6.906 40.406 6.22 40.014 5.688 39.65C5.156 39.286 4.701 38.817 4.323 38.243C3.945 37.669 3.756 36.976 3.756 36.164C3.756 35.352 3.945 34.645 4.323 34.043C4.715 33.427 5.261 32.958 5.961 32.636C6.661 32.3 7.459 32.132 8.355 32.132C9.293 32.132 10.126 32.314 10.854 32.678C11.582 33.028 12.149 33.525 12.555 34.169C12.961 34.813 13.164 35.555 13.164 36.395V36.815C13.164 36.885 13.136 36.948 13.08 37.004C13.038 37.046 12.982 37.067 12.912 37.067H10.497C10.427 37.067 10.364 37.046 10.308 37.004C10.266 36.948 10.245 36.885 10.245 36.815V36.437C10.245 35.933 10.07 35.513 9.72 35.177C9.37 34.841 8.894 34.673 8.292 34.673C7.788 34.673 7.389 34.806 7.095 35.072C6.815 35.324 6.675 35.681 6.675 36.143C6.675 36.465 6.759 36.745 6.927 36.983C7.095 37.221 7.354 37.452 7.704 37.676C8.054 37.886 8.586 38.166 9.3 38.516L9.741 38.768C10.553 39.216 11.183 39.608 11.631 39.944C12.093 40.266 12.478 40.679 12.786 41.183C13.094 41.687 13.248 42.296 13.248 43.01C13.248 44.284 12.814 45.299 11.946 46.055C11.092 46.797 9.951 47.168 8.523 47.168ZM19.5802 47.168C18.6282 47.168 17.7882 46.979 17.0602 46.601C16.3322 46.223 15.7652 45.684 15.3592 44.984C14.9672 44.284 14.7712 43.472 14.7712 42.548V36.71C14.7712 35.8 14.9672 35.002 15.3592 34.316C15.7652 33.616 16.3322 33.077 17.0602 32.699C17.7882 32.321 18.6282 32.132 19.5802 32.132C20.5322 32.132 21.3722 32.321 22.1002 32.699C22.8282 33.063 23.3882 33.581 23.7802 34.253C24.1862 34.925 24.3892 35.709 24.3892 36.605V36.71C24.3892 36.78 24.3612 36.843 24.3052 36.899C24.2632 36.955 24.2072 36.983 24.1372 36.983L21.6802 37.088C21.5122 37.088 21.4282 37.011 21.4282 36.857V36.584C21.4282 36.01 21.2602 35.548 20.9242 35.198C20.5882 34.848 20.1402 34.673 19.5802 34.673C19.0202 34.673 18.5722 34.848 18.2362 35.198C17.9002 35.548 17.7322 36.01 17.7322 36.584V42.737C17.7322 43.311 17.9002 43.773 18.2362 44.123C18.5722 44.459 19.0202 44.627 19.5802 44.627C20.1402 44.627 20.5882 44.459 20.9242 44.123C21.2602 43.773 21.4282 43.311 21.4282 42.737V42.464C21.4282 42.31 21.5122 42.233 21.6802 42.233L24.1372 42.338C24.2072 42.338 24.2632 42.366 24.3052 42.422C24.3612 42.464 24.3892 42.52 24.3892 42.59V42.653C24.3892 43.549 24.1862 44.34 23.7802 45.026C23.3882 45.712 22.8282 46.244 22.1002 46.622C21.3722 46.986 20.5322 47.168 19.5802 47.168ZM26.5339 47C26.4639 47 26.4009 46.979 26.3449 46.937C26.3029 46.881 26.2819 46.818 26.2819 46.748V32.552C26.2819 32.482 26.3029 32.426 26.3449 32.384C26.4009 32.328 26.4639 32.3 26.5339 32.3H28.9909C29.0609 32.3 29.1169 32.328 29.1589 32.384C29.2149 32.426 29.2429 32.482 29.2429 32.552V46.748C29.2429 46.818 29.2149 46.881 29.1589 46.937C29.1169 46.979 29.0609 47 28.9909 47H26.5339ZM35.8599 47.168C34.8939 47.168 34.0469 47 33.3189 46.664C32.5909 46.314 32.0239 45.831 31.6179 45.215C31.2259 44.585 31.0299 43.864 31.0299 43.052V42.506C31.0299 42.436 31.0509 42.38 31.0929 42.338C31.1489 42.282 31.2119 42.254 31.2819 42.254H33.6969C33.7669 42.254 33.8229 42.282 33.8649 42.338C33.9209 42.38 33.9489 42.436 33.9489 42.506V42.905C33.9489 43.395 34.1309 43.808 34.4949 44.144C34.8589 44.466 35.3489 44.627 35.9649 44.627C36.5109 44.627 36.9239 44.487 37.2039 44.207C37.4979 43.927 37.6449 43.57 37.6449 43.136C37.6449 42.814 37.5539 42.541 37.3719 42.317C37.1899 42.079 36.9309 41.862 36.5949 41.666C36.2729 41.456 35.7689 41.176 35.0829 40.826C34.2429 40.406 33.5569 40.014 33.0249 39.65C32.4929 39.286 32.0379 38.817 31.6599 38.243C31.2819 37.669 31.0929 36.976 31.0929 36.164C31.0929 35.352 31.2819 34.645 31.6599 34.043C32.0519 33.427 32.5979 32.958 33.2979 32.636C33.9979 32.3 34.7959 32.132 35.6919 32.132C36.6299 32.132 37.4629 32.314 38.1909 32.678C38.9189 33.028 39.4859 33.525 39.8919 34.169C40.2979 34.813 40.5009 35.555 40.5009 36.395V36.815C40.5009 36.885 40.4729 36.948 40.4169 37.004C40.3749 37.046 40.3189 37.067 40.2489 37.067H37.8339C37.7639 37.067 37.7009 37.046 37.6449 37.004C37.6029 36.948 37.5819 36.885 37.5819 36.815V36.437C37.5819 35.933 37.4069 35.513 37.0569 35.177C36.7069 34.841 36.2309 34.673 35.6289 34.673C35.1249 34.673 34.7259 34.806 34.4319 35.072C34.1519 35.324 34.0119 35.681 34.0119 36.143C34.0119 36.465 34.0959 36.745 34.2639 36.983C34.4319 37.221 34.6909 37.452 35.0409 37.676C35.3909 37.886 35.9229 38.166 36.6369 38.516L37.0779 38.768C37.8899 39.216 38.5199 39.608 38.9679 39.944C39.4299 40.266 39.8149 40.679 40.1229 41.183C40.4309 41.687 40.5849 42.296 40.5849 43.01C40.5849 44.284 40.1509 45.299 39.2829 46.055C38.4289 46.797 37.2879 47.168 35.8599 47.168ZM46.7701 47.168C45.8041 47.168 44.9571 47 44.2291 46.664C43.5011 46.314 42.9341 45.831 42.5281 45.215C42.1361 44.585 41.9401 43.864 41.9401 43.052V42.506C41.9401 42.436 41.9611 42.38 42.0031 42.338C42.0591 42.282 42.1221 42.254 42.1921 42.254H44.6071C44.6771 42.254 44.7331 42.282 44.7751 42.338C44.8311 42.38 44.8591 42.436 44.8591 42.506V42.905C44.8591 43.395 45.0411 43.808 45.4051 44.144C45.7691 44.466 46.2591 44.627 46.8751 44.627C47.4211 44.627 47.8341 44.487 48.1141 44.207C48.4081 43.927 48.5551 43.57 48.5551 43.136C48.5551 42.814 48.4641 42.541 48.2821 42.317C48.1001 42.079 47.8411 41.862 47.5051 41.666C47.1831 41.456 46.6791 41.176 45.9931 40.826C45.1531 40.406 44.4671 40.014 43.9351 39.65C43.4031 39.286 42.9481 38.817 42.5701 38.243C42.1921 37.669 42.0031 36.976 42.0031 36.164C42.0031 35.352 42.1921 34.645 42.5701 34.043C42.9621 33.427 43.5081 32.958 44.2081 32.636C44.9081 32.3 45.7061 32.132 46.6021 32.132C47.5401 32.132 48.3731 32.314 49.1011 32.678C49.8291 33.028 50.3961 33.525 50.8021 34.169C51.2081 34.813 51.4111 35.555 51.4111 36.395V36.815C51.4111 36.885 51.3831 36.948 51.3271 37.004C51.2851 37.046 51.2291 37.067 51.1591 37.067H48.7441C48.6741 37.067 48.6111 37.046 48.5551 37.004C48.5131 36.948 48.4921 36.885 48.4921 36.815V36.437C48.4921 35.933 48.3171 35.513 47.9671 35.177C47.6171 34.841 47.1411 34.673 46.5391 34.673C46.0351 34.673 45.6361 34.806 45.3421 35.072C45.0621 35.324 44.9221 35.681 44.9221 36.143C44.9221 36.465 45.0061 36.745 45.1741 36.983C45.3421 37.221 45.6011 37.452 45.9511 37.676C46.3011 37.886 46.8331 38.166 47.5471 38.516L47.9881 38.768C48.8001 39.216 49.4301 39.608 49.8781 39.944C50.3401 40.266 50.7251 40.679 51.0331 41.183C51.3411 41.687 51.4951 42.296 51.4951 43.01C51.4951 44.284 51.0611 45.299 50.1931 46.055C49.3391 46.797 48.1981 47.168 46.7701 47.168ZM57.8902 47.189C56.9242 47.189 56.0702 46.993 55.3282 46.601C54.6002 46.209 54.0332 45.656 53.6272 44.942C53.2212 44.228 53.0182 43.395 53.0182 42.443V36.857C53.0182 35.919 53.2212 35.093 53.6272 34.379C54.0332 33.665 54.6002 33.112 55.3282 32.72C56.0702 32.328 56.9242 32.132 57.8902 32.132C58.8562 32.132 59.7102 32.328 60.4522 32.72C61.1942 33.112 61.7682 33.665 62.1742 34.379C62.5802 35.093 62.7832 35.919 62.7832 36.857V42.443C62.7832 43.395 62.5802 44.228 62.1742 44.942C61.7682 45.656 61.1942 46.209 60.4522 46.601C59.7102 46.993 58.8562 47.189 57.8902 47.189ZM57.8902 44.648C58.4782 44.648 58.9472 44.459 59.2972 44.081C59.6472 43.689 59.8222 43.185 59.8222 42.569V36.773C59.8222 36.143 59.6472 35.639 59.2972 35.261C58.9472 34.869 58.4782 34.673 57.8902 34.673C57.3162 34.673 56.8542 34.869 56.5042 35.261C56.1542 35.639 55.9792 36.143 55.9792 36.773V42.569C55.9792 43.185 56.1542 43.689 56.5042 44.081C56.8542 44.459 57.3162 44.648 57.8902 44.648ZM71.6636 47C71.5096 47 71.4116 46.93 71.3696 46.79L69.2486 40.994C69.2206 40.938 69.1856 40.91 69.1436 40.91H67.8206C67.7506 40.91 67.7156 40.945 67.7156 41.015V46.748C67.7156 46.818 67.6876 46.881 67.6316 46.937C67.5896 46.979 67.5336 47 67.4636 47H65.0066C64.9366 47 64.8736 46.979 64.8176 46.937C64.7756 46.881 64.7546 46.818 64.7546 46.748V32.552C64.7546 32.482 64.7756 32.426 64.8176 32.384C64.8736 32.328 64.9366 32.3 65.0066 32.3H70.1306C70.9566 32.3 71.6916 32.489 72.3356 32.867C72.9796 33.231 73.4766 33.749 73.8266 34.421C74.1766 35.093 74.3516 35.863 74.3516 36.731C74.3516 37.627 74.1556 38.404 73.7636 39.062C73.3716 39.72 72.8186 40.21 72.1046 40.532C72.0346 40.56 72.0136 40.609 72.0416 40.679L74.4356 46.706C74.4496 46.734 74.4566 46.769 74.4566 46.811C74.4566 46.937 74.3796 47 74.2256 47H71.6636ZM67.8206 34.841C67.7506 34.841 67.7156 34.876 67.7156 34.946V38.537C67.7156 38.607 67.7506 38.642 67.8206 38.642H69.6476C70.1656 38.642 70.5856 38.474 70.9076 38.138C71.2296 37.788 71.3906 37.326 71.3906 36.752C71.3906 36.164 71.2296 35.702 70.9076 35.366C70.5856 35.016 70.1656 34.841 69.6476 34.841H67.8206ZM80.5875 47.168C79.6215 47.168 78.7745 47 78.0465 46.664C77.3185 46.314 76.7515 45.831 76.3455 45.215C75.9535 44.585 75.7575 43.864 75.7575 43.052V42.506C75.7575 42.436 75.7785 42.38 75.8205 42.338C75.8765 42.282 75.9395 42.254 76.0095 42.254H78.4245C78.4945 42.254 78.5505 42.282 78.5925 42.338C78.6485 42.38 78.6765 42.436 78.6765 42.506V42.905C78.6765 43.395 78.8585 43.808 79.2225 44.144C79.5865 44.466 80.0765 44.627 80.6925 44.627C81.2385 44.627 81.6515 44.487 81.9315 44.207C82.2255 43.927 82.3725 43.57 82.3725 43.136C82.3725 42.814 82.2815 42.541 82.0995 42.317C81.9175 42.079 81.6585 41.862 81.3225 41.666C81.0005 41.456 80.4965 41.176 79.8105 40.826C78.9705 40.406 78.2845 40.014 77.7525 39.65C77.2205 39.286 76.7655 38.817 76.3875 38.243C76.0095 37.669 75.8205 36.976 75.8205 36.164C75.8205 35.352 76.0095 34.645 76.3875 34.043C76.7795 33.427 77.3255 32.958 78.0255 32.636C78.7255 32.3 79.5235 32.132 80.4195 32.132C81.3575 32.132 82.1905 32.314 82.9185 32.678C83.6465 33.028 84.2135 33.525 84.6195 34.169C85.0255 34.813 85.2285 35.555 85.2285 36.395V36.815C85.2285 36.885 85.2005 36.948 85.1445 37.004C85.1025 37.046 85.0465 37.067 84.9765 37.067H82.5615C82.4915 37.067 82.4285 37.046 82.3725 37.004C82.3305 36.948 82.3095 36.885 82.3095 36.815V36.437C82.3095 35.933 82.1345 35.513 81.7845 35.177C81.4345 34.841 80.9585 34.673 80.3565 34.673C79.8525 34.673 79.4535 34.806 79.1595 35.072C78.8795 35.324 78.7395 35.681 78.7395 36.143C78.7395 36.465 78.8235 36.745 78.9915 36.983C79.1595 37.221 79.4185 37.452 79.7685 37.676C80.1185 37.886 80.6505 38.166 81.3645 38.516L81.8055 38.768C82.6175 39.216 83.2475 39.608 83.6955 39.944C84.1575 40.266 84.5425 40.679 84.8505 41.183C85.1585 41.687 85.3125 42.296 85.3125 43.01C85.3125 44.284 84.8785 45.299 84.0105 46.055C83.1565 46.797 82.0155 47.168 80.5875 47.168Z" fill="white"/>
</g>
<defs>
<filter id="filter0_d_0_1372" x="0.692871" y="0.132" width="87.6196" height="53.057" filterUnits="userSpaceOnUse" color-interpolation-filters="sRGB">
<feFlood flood-opacity="0" result="BackgroundImageFix"/>
<feColorMatrix in="SourceAlpha" type="matrix" values="0 0 0 0 0 0 0 0 0 0 0 0 0 0 0 0 0 0 127 0" result="hardAlpha"/>
<feOffset dy="3"/>
<feGaussianBlur stdDeviation="1.5"/>
<feColorMatrix type="matrix" values="0 0 0 0 0 0 0 0 0 0 0 0 0 0 0 0 0 0 0.196706 0"/>
<feBlend mode="normal" in2="BackgroundImageFix" result="effect1_dropShadow_0_1372"/>
<feBlend mode="normal" in="SourceGraphic" in2="effect1_dropShadow_0_1372" result="shape"/>
</filter>
</defs>
</svg>
